<svg id="Layer_1" data-name="Layer 1" xmlns="http://www.w3.org/2000/svg" viewBox="0 0 512 512"><title>cutlery</title><rect width="512" height="512" fill="#7f807e"/><path d="M388.48,374.94c0-.06-.13-.17-.2-.15v-.1S312.12,298.56,304.51,291c-6.88-7-181.43-181-181.43-181l-3.79,3.76S105.91,178.57,234.4,307.37a44.41,44.41,0,0,1,61.78,20.26l58.52,58.52,11.38,11.21a15.84,15.84,0,0,0,22.4-22.41Zm-5.73,16.73a8.64,8.64,0,1,1,0-12.23A8.64,8.64,0,0,1,382.75,391.67Z" fill="#fff"/><path d="M261.11,235.88,277,251.72a57.74,57.74,0,0,1,32.27-10,.85.85,0,0,1,.23,0,40.65,40.65,0,0,0,27.85-10c.56-.49,1.88-1.84,1.88-1.84l62.89-77.16-6.59-6.57-75.15,79-7.88-7.93,77.07-77.07-5.77-5.77L306.26,212l-6.56-6.56,77.54-77.54-6.38-6.34-77.54,77.5-7.75-7.75L365.35,116l-6-6-74.16,59.55s-2.38,2-3.22,2.88a40.67,40.67,0,0,0-11.65,33.16C269.54,218.17,266,228,261.11,235.88Z" fill="#fff"/><path d="M203,286.56l-88.26,88.28h0c-.08.08-.18.12-.26.21a15.8,15.8,0,0,0,22.36,22.34,1.74,1.74,0,0,0,.17-.24v0l87.74-87.7Q213.16,297.69,203,286.56Z" fill="#fff"/></svg>